<svg width="251" height="220" viewBox="0 0 251 220" fill="none" xmlns="http://www.w3.org/2000/svg">
<path opacity="0.7" d="M186.417 152.648L144.615 216.669C144.023 217.576 142.531 217.712 140.125 217.042C137.742 216.395 134.637 214.822 130.836 212.34C128.152 210.587 125.643 208.74 123.28 206.785L21.228 122.012C18.1417 119.481 15.7246 117.029 13.995 114.684C12.296 112.351 11.7054 110.759 12.2496 109.926L52.8751 47.707C53.3513 46.9777 54.5529 46.8793 56.4532 47.3946C58.38 47.9272 60.8339 49.1622 63.8373 51.1233C66.0433 52.5637 69.3451 55.113 73.7466 58.7649L185.902 151.927C186.286 152.327 186.465 152.575 186.417 152.648Z" fill="#2752E7"/>
<path opacity="0.7" d="M248.964 55.7927C248.951 56.1484 233.082 80.1943 201.336 127.949C169.59 175.704 147.308 205.695 141.863 213.823L81.4783 97.6605L141.628 7.03239C143.73 3.82574 146.828 2.29871 150.905 2.45054C152.531 2.51113 154.047 2.92378 155.412 3.66726L248.299 54.6993C248.759 54.9737 248.982 55.3184 248.964 55.7927Z" fill="#5275EC"/>
</svg>
